<svg xmlns="http://www.w3.org/2000/svg" width="88" height="37.12" viewBox="0 0 44 18.56">
  <metadata><?xpacket begin="﻿" id="W5M0MpCehiHzreSzNTczkc9d"?>
<x:xmpmeta xmlns:x="adobe:ns:meta/" x:xmptk="Adobe XMP Core 5.6-c140 79.160451, 2017/05/06-01:08:21        ">
   <rdf:RDF xmlns:rdf="http://www.w3.org/1999/02/22-rdf-syntax-ns#">
      <rdf:Description rdf:about=""/>
   </rdf:RDF>
</x:xmpmeta>
<?xpacket end="w"?></metadata>
<defs>
    <style>
      .cls-1 {
        fill-rule: evenodd;
      }
    </style>
  </defs>
  <path id="arrow" class="cls-1" d="M1660.36,6924.29a1.49,1.49,0,0,0-.29-0.47l-7.39-7.84a1.3,1.3,0,0,0-1.91,0,1.5,1.5,0,0,0,0,2.03l5.08,5.4h-38.04a1.432,1.432,0,0,0,0,2.86h38.05l-5.09,5.4a1.5,1.5,0,0,0,0,2.03,1.3,1.3,0,0,0,1.91,0l7.39-7.84a1.611,1.611,0,0,0,.29-0.47A1.562,1.562,0,0,0,1660.36,6924.29Z" transform="translate(-1616.47 -6915.56)"/>
</svg>
