<svg id="round_arrow" xmlns="http://www.w3.org/2000/svg" width="228" height="228" viewBox="0 0 114 114">
  <defs>
    <style>
      .cls-1 {
        fill: none;
        stroke: #000;
        stroke-width: 2px;
      }

      .cls-2 {
        fill-rule: evenodd;
      }
    </style>
  </defs>
  <circle id="Ellipse_2_copy_27" data-name="Ellipse 2 copy 27" class="cls-1" cx="57" cy="57" r="56"/>
  <path id="Shape_4_copy_12" data-name="Shape 4 copy 12" class="cls-2" d="M1918.36,9372.29a1.49,1.49,0,0,0-.29-0.47l-7.39-7.84a1.3,1.3,0,0,0-1.91,0,1.5,1.5,0,0,0,0,2.03l5.08,5.4h-38.04a1.432,1.432,0,0,0,0,2.86h38.05l-5.09,5.4a1.5,1.5,0,0,0,0,2.03,1.3,1.3,0,0,0,1.91,0l7.39-7.85A1.522,1.522,0,0,0,1918.36,9372.29Z" transform="translate(-1838 -9316)"/>
</svg>
