<svg height="44" viewBox="0 0 293 44" width="293" xmlns="http://www.w3.org/2000/svg"><g fill="none" fill-rule="evenodd" transform="translate(2 2)"><g fill="#000" fill-rule="nonzero"><path d="m59.972 9.588c6.056 0 10.492 4.527 10.492 10.706 0 6.178-4.436 10.706-10.492 10.706h-7.769v-21.412zm0 4.282h-3.487v12.847h3.487c3.671 0 6.21-2.722 6.21-6.423s-2.539-6.424-6.21-6.424z"/><path d="m80.222 15.339c4.711 0 8.228 3.242 8.228 8.013 0 4.773-3.517 8.015-8.228 8.015s-8.228-3.242-8.228-8.015c0-4.771 3.517-8.013 8.228-8.013m0 3.946c-2.294 0-4.068 1.62-4.068 4.067 0 2.448 1.774 4.068 4.068 4.068s4.068-1.62 4.068-4.068c0-2.447-1.774-4.067-4.068-4.067"/><path d="m98.958 15.338c.551 0 1.831.304 2.32.426v4.344c-.55-.183-2.014-.457-2.657-.457-2.66 0-3.853 1.499-3.853 4.435v6.913h-4.038v-15.294h3.885v2.508c.825-1.774 2.202-2.875 4.343-2.875"/><path d="m122.209 15.338c3.579 0 5.781 2.386 5.781 6.362v9.299h-4.068v-8.473c0-2.171-.948-3.304-2.753-3.304-2.478 0-3.365 1.867-3.365 4.467v7.31h-4.037v-8.473c0-2.171-.949-3.304-2.784-3.304-2.447 0-3.303 1.867-3.303 4.467v7.31h-4.038v-15.294h3.915v2.233c.918-1.469 2.386-2.6 4.772-2.6 2.264 0 3.885.978 4.741 2.845.918-1.652 2.6-2.845 5.139-2.845"/><path d="m164.252 14.839c4.711 0 8.228 3.242 8.228 8.013 0 4.773-3.517 8.015-8.228 8.015-4.712 0-8.229-3.242-8.229-8.015 0-4.771 3.517-8.013 8.229-8.013m0 3.946c-2.295 0-4.068 1.62-4.068 4.067 0 2.448 1.773 4.068 4.068 4.068 2.294 0 4.067-1.62 4.067-4.068 0-2.447-1.773-4.067-4.067-4.067"/><path d="m182.358 14.839c4.711 0 8.228 3.242 8.228 8.013 0 4.773-3.517 8.015-8.228 8.015-4.712 0-8.229-3.242-8.229-8.015.001-4.771 3.517-8.013 8.229-8.013m0 3.946c-2.294 0-4.068 1.62-4.068 4.067 0 2.448 1.774 4.068 4.068 4.068s4.067-1.62 4.067-4.068c.001-2.447-1.773-4.067-4.067-4.067"/><path d="m211.752 14.838c3.579 0 5.781 2.386 5.781 6.362v9.299h-4.068v-8.473c0-2.171-.948-3.304-2.753-3.304-2.479 0-3.365 1.867-3.365 4.467v7.31h-4.037v-8.473c0-2.171-.949-3.304-2.784-3.304-2.446 0-3.303 1.867-3.303 4.467v7.31h-4.038v-15.294h3.915v2.233c.918-1.469 2.386-2.6 4.772-2.6 2.264 0 3.885.978 4.74 2.845.919-1.652 2.601-2.845 5.14-2.845"/><path d="m238.649 9.087v4.282h-10.544v4.283h10.544v4.283h-10.544v8.565h-4.281v-21.413z"/><path d="m254.546 15.205v15.295h-3.915v-2.325c-1.04 1.561-2.57 2.692-4.864 2.692-3.548 0-5.292-2.386-5.292-6.148v-9.513h4.13v8.504c0 2.172.795 3.273 2.569 3.273 2.264 0 3.304-1.836 3.304-4.467v-7.311z"/><path d="m266.235 14.838c3.579 0 5.414 2.325 5.414 6.179v9.481h-4.129v-8.473c0-2.295-1.071-3.304-2.783-3.304-2.355 0-3.335 1.744-3.335 4.467v7.31h-4.037v-15.294h3.915v2.203c1.072-1.499 2.722-2.569 4.955-2.569"/><path d="m290.079 9.088v21.412h-4.037v-2.141c-1.101 1.559-2.845 2.539-5.077 2.539-3.794 0-6.975-2.876-6.975-8.046 0-5.168 3.181-8.045 6.914-8.045 2.385 0 4.098 1.133 5.138 2.602v-8.321zm-11.929 13.764c0 2.478 1.713 4.099 4.007 4.099 2.264 0 4.007-1.59 4.007-4.099 0-2.539-1.743-4.098-4.007-4.098-2.294 0-4.007 1.621-4.007 4.098z"/><path d="m155.397 27.733c-2.344.836-4.319-.599-5.553-2.968l-.944-1.812c1.98-1.324 3.2-3.568 3.2-6.241l-.017-.014c0-4.316-3.175-7.522-7.614-7.522h-.13-9.302v21.578h4.315v-6.504h4.964l.169-.016c.101 0 .198-.011.297-.014l1.448 2.778c2.181 4.188 6.859 5.667 11.148 3.579zm-7.63-11.004c0 1.849-1.233 3.206-3.298 3.206h-5.115v-6.443h5.117c2.066 0 3.299 1.357 3.299 3.206z"/><path d="m10.022 14.817c3.078 0 5.332 2.301 5.332 5.441 0 3.139-2.254 5.44-5.332 5.44h-3.948v-10.881zm0 2.177h-1.772v6.528h1.772c1.865 0 3.155-1.383 3.155-3.263.001-1.882-1.289-3.265-3.155-3.265z"/><path d="m33.806 14.945v2.176h-4.85v2.176h4.85v2.176h-4.85v4.353h-2.176v-10.881z"/><path d="m26.797 25.838c.319-.088.637-.209.951-.372l-.869-1.483c-.028.013-.055.022-.082.034z"/><path d="m25.897 24.208c-.862-.027-1.584-.674-2.074-1.615l-.476-.914c.999-.667 1.614-1.799 1.614-3.146l-.008-.008c0-2.176-1.601-3.792-3.84-3.792h-.066-4.69v10.88h2.176v-3.279h2.503l.085-.009c.051 0 .1-.005.15-.007l.73 1.401c.81 1.555 2.303 2.367 3.896 2.269zm-3.122-5.667c0 .932-.622 1.616-1.663 1.616h-2.579v-3.248h2.58c1.042 0 1.663.684 1.663 1.616z"/></g><circle cx="19.807" cy="20.135" r="19.667" stroke="#000" stroke-width="3"/></g></svg>