<svg height="44" viewBox="0 0 43 44" width="43" xmlns="http://www.w3.org/2000/svg"><g fill="none" fill-rule="evenodd" transform="translate(2 2)"><g fill="#000" fill-rule="nonzero"><path d="m10.022 14.817c3.078 0 5.332 2.301 5.332 5.441 0 3.139-2.254 5.44-5.332 5.44h-3.948v-10.881zm0 2.177h-1.772v6.528h1.772c1.865 0 3.155-1.383 3.155-3.263.001-1.882-1.289-3.265-3.155-3.265z"/><path d="m33.806 14.945v2.176h-4.85v2.176h4.85v2.176h-4.85v4.353h-2.176v-10.881z"/><path d="m26.797 25.838c.319-.088.637-.209.951-.372l-.869-1.483c-.028.013-.055.022-.082.034z"/><path d="m25.897 24.208c-.862-.027-1.584-.674-2.074-1.615l-.476-.914c.999-.667 1.614-1.799 1.614-3.146l-.008-.008c0-2.176-1.601-3.792-3.84-3.792h-.066-4.69v10.88h2.176v-3.279h2.503l.085-.009c.051 0 .1-.005.15-.007l.73 1.401c.81 1.555 2.303 2.367 3.896 2.269zm-3.122-5.667c0 .932-.622 1.616-1.663 1.616h-2.579v-3.248h2.58c1.042 0 1.663.684 1.663 1.616z"/></g><circle cx="19.807" cy="20.135" r="19.667" stroke="#000" stroke-width="3"/></g></svg>