<svg height="44" viewBox="0 0 43 44" width="43" xmlns="http://www.w3.org/2000/svg"><g fill="#fff"><path d="m12.223 16.651c3.078 0 5.332 2.301 5.332 5.441 0 3.139-2.254 5.439-5.332 5.439h-3.948v-10.881h3.948zm0 2.176h-1.772v6.528h1.772c1.865 0 3.155-1.383 3.155-3.263-.001-1.881-1.291-3.265-3.155-3.265z"/><path d="m36.006 16.779v2.176h-4.85v2.176h4.85v2.177h-4.85v4.352h-2.176v-10.881z"/><path d="m28.997 27.672c.319-.088.637-.209.951-.372l-.869-1.484c-.028.015-.055.023-.082.035z"/><path d="m28.098 26.042c-.862-.027-1.584-.675-2.074-1.615l-.476-.914c.999-.667 1.613-1.799 1.613-3.146l-.007-.008c0-2.176-1.601-3.792-3.84-3.792h-.066-4.69v10.88h2.176v-3.278h2.503l.085-.01c.051 0 .1-.005.15-.007l.73 1.401c.809 1.555 2.303 2.367 3.896 2.27zm-3.122-5.667c0 .932-.622 1.615-1.663 1.615h-2.579v-3.248h2.58c1.042 0 1.663.685 1.663 1.616z"/><path d="m21.807 43.136c-11.671 0-21.167-9.495-21.167-21.167s9.496-21.167 21.167-21.167 21.167 9.495 21.167 21.167-9.496 21.167-21.167 21.167m0-39.334c-10.017 0-18.167 8.148-18.167 18.167 0 10.018 8.15 18.167 18.167 18.167s18.167-8.149 18.167-18.167c0-10.019-8.15-18.167-18.167-18.167"/></g></svg>