<svg height="44" viewBox="0 0 293 44" width="293" xmlns="http://www.w3.org/2000/svg"><g fill="#fff"><path d="m61.972 11.422c6.056 0 10.492 4.526 10.492 10.706 0 6.178-4.436 10.706-10.492 10.706h-7.769v-21.412zm0 4.281h-3.487v12.848h3.487c3.671 0 6.21-2.723 6.21-6.423 0-3.701-2.539-6.425-6.21-6.425z"/><path d="m82.222 17.173c4.711 0 8.228 3.241 8.228 8.013 0 4.773-3.517 8.015-8.228 8.015s-8.228-3.241-8.228-8.015c0-4.772 3.517-8.013 8.228-8.013m0 3.945c-2.294 0-4.068 1.62-4.068 4.067 0 2.448 1.774 4.068 4.068 4.068s4.068-1.62 4.068-4.068c0-2.447-1.774-4.067-4.068-4.067"/><path d="m100.958 17.172c.551 0 1.831.305 2.32.426v4.345c-.55-.184-2.014-.457-2.657-.457-2.66 0-3.853 1.499-3.853 4.435v6.913h-4.038v-15.294h3.885v2.508c.825-1.775 2.202-2.876 4.343-2.876"/><path d="m124.209 17.172c3.579 0 5.781 2.387 5.781 6.362v9.299h-4.068v-8.473c0-2.171-.948-3.305-2.753-3.305-2.478 0-3.365 1.867-3.365 4.468v7.31h-4.037v-8.473c0-2.171-.949-3.305-2.784-3.305-2.447 0-3.303 1.867-3.303 4.468v7.31h-4.038v-15.294h3.915v2.233c.918-1.47 2.386-2.601 4.772-2.601 2.264 0 3.885.979 4.741 2.846.918-1.652 2.6-2.845 5.139-2.845"/><path d="m166.252 16.673c4.711 0 8.228 3.241 8.228 8.013 0 4.773-3.517 8.015-8.228 8.015-4.712 0-8.229-3.241-8.229-8.015 0-4.772 3.517-8.013 8.229-8.013m0 3.945c-2.295 0-4.068 1.62-4.068 4.067 0 2.448 1.773 4.068 4.068 4.068 2.294 0 4.067-1.62 4.067-4.068 0-2.447-1.773-4.067-4.067-4.067"/><path d="m184.358 16.673c4.711 0 8.228 3.241 8.228 8.013 0 4.773-3.517 8.015-8.228 8.015-4.712 0-8.229-3.241-8.229-8.015.001-4.772 3.517-8.013 8.229-8.013m0 3.945c-2.294 0-4.068 1.62-4.068 4.067 0 2.448 1.774 4.068 4.068 4.068s4.067-1.62 4.067-4.068c.001-2.447-1.773-4.067-4.067-4.067"/><path d="m213.752 16.672c3.579 0 5.781 2.387 5.781 6.362v9.299h-4.068v-8.473c0-2.171-.948-3.305-2.753-3.305-2.479 0-3.365 1.867-3.365 4.468v7.31h-4.037v-8.473c0-2.171-.949-3.305-2.784-3.305-2.446 0-3.303 1.867-3.303 4.468v7.31h-4.038v-15.294h3.915v2.233c.918-1.47 2.386-2.601 4.772-2.601 2.264 0 3.885.979 4.74 2.846.919-1.652 2.601-2.845 5.14-2.845"/><path d="m240.649 10.921v4.282h-10.544v4.283h10.544v4.282h-10.544v8.565h-4.281v-21.412z"/><path d="m256.546 17.039v15.294h-3.915v-2.325c-1.04 1.562-2.57 2.692-4.864 2.692-3.548 0-5.292-2.386-5.292-6.147v-9.514h4.13v8.504c0 2.172.795 3.273 2.569 3.273 2.264 0 3.304-1.836 3.304-4.467v-7.311h4.068z"/><path d="m268.235 16.672c3.579 0 5.414 2.325 5.414 6.18v9.481h-4.129v-8.473c0-2.295-1.071-3.305-2.783-3.305-2.355 0-3.335 1.744-3.335 4.468v7.31h-4.037v-15.294h3.915v2.203c1.072-1.5 2.722-2.57 4.955-2.57"/><path d="m292.079 10.921v21.413h-4.037v-2.142c-1.101 1.56-2.845 2.539-5.077 2.539-3.794 0-6.975-2.876-6.975-8.046 0-5.169 3.181-8.045 6.914-8.045 2.385 0 4.098 1.133 5.138 2.601v-8.32zm-11.929 13.765c0 2.479 1.713 4.1 4.007 4.1 2.264 0 4.007-1.591 4.007-4.1 0-2.539-1.743-4.098-4.007-4.098-2.294 0-4.007 1.621-4.007 4.098z"/><path d="m157.397 29.567c-2.344.836-4.319-.6-5.553-2.968l-.944-1.812c1.98-1.324 3.2-3.568 3.2-6.24l-.017-.015c0-4.316-3.175-7.521-7.614-7.521h-.13-9.302v21.577h4.315v-6.504h4.964l.169-.016c.101 0 .198-.01.297-.015l1.448 2.779c2.181 4.187 6.859 5.666 11.148 3.578zm-7.63-11.005c0 1.85-1.233 3.207-3.298 3.207h-5.115v-6.443h5.117c2.066 0 3.299 1.357 3.299 3.206z"/><path d="m12.223 16.651c3.078 0 5.332 2.301 5.332 5.441 0 3.139-2.254 5.439-5.332 5.439h-3.948v-10.881h3.948zm0 2.176h-1.772v6.528h1.772c1.865 0 3.155-1.383 3.155-3.263-.001-1.881-1.291-3.265-3.155-3.265z"/><path d="m36.006 16.779v2.176h-4.85v2.176h4.85v2.177h-4.85v4.352h-2.176v-10.881z"/><path d="m28.997 27.672c.319-.088.637-.209.951-.372l-.869-1.484c-.028.015-.055.023-.082.035z"/><path d="m28.098 26.042c-.862-.027-1.584-.675-2.074-1.615l-.476-.914c.999-.667 1.613-1.799 1.613-3.146l-.007-.008c0-2.176-1.601-3.792-3.84-3.792h-.066-4.69v10.88h2.176v-3.278h2.503l.085-.01c.051 0 .1-.005.15-.007l.73 1.401c.809 1.555 2.303 2.367 3.896 2.27zm-3.122-5.667c0 .932-.622 1.615-1.663 1.615h-2.579v-3.248h2.58c1.042 0 1.663.685 1.663 1.616z"/><path d="m21.807 43.136c-11.671 0-21.167-9.495-21.167-21.167s9.496-21.167 21.167-21.167 21.167 9.495 21.167 21.167-9.496 21.167-21.167 21.167m0-39.334c-10.017 0-18.167 8.148-18.167 18.167 0 10.018 8.15 18.167 18.167 18.167s18.167-8.149 18.167-18.167c0-10.019-8.15-18.167-18.167-18.167"/></g></svg>