<svg enable-background="new 0 0 50 50" height="50" viewBox="0 0 50 50" width="50" xmlns="http://www.w3.org/2000/svg"><g fill="#030303"><path d="m19.3 50h-14.8v-22.6h-4.5v-18.4h1.7c4.1 0 7.3-3.2 7.3-7.3v-1.7h41v3.5h-37.6c-.8 4.5-4.4 8.1-8.9 8.9v11.5h4.5v22.6h11.4v3.5z"/><path d="m36.1 37h-2.4v1.5h2.3v1.2h-2.3v2.4h-1.4v-6.2h3.9v1.1z"/><path d="m37.8 37.1c-.5 0-.8-.3-.8-.7s.3-.7.8-.7.8.3.8.7-.4.7-.8.7zm.7 5h-1.5v-4.4h1.4v4.4z"/><path d="m42.5 39c-.1 0-.3-.1-.6-.1s-.6.2-.7.3-.2.4-.2.9v2h-1.4v-4.4h1.4v.6c.3-.5.6-.7 1.1-.7.3 0 .4.1.4.1z"/><path d="m46 41.8c-.3.3-.8.4-1.4.4-.7 0-1.4-.2-1.9-.7l.5-.9c.4.3 1 .5 1.3.5.4 0 .6-.1.6-.4s-.6-.4-.8-.5c-.2 0-.4-.1-.6-.2-.1 0-.7-.3-.7-1.1 0-.9.8-1.4 1.7-1.4s1.4.3 1.7.5l-.5.8c-.3-.2-.8-.4-1.1-.4s-.5.1-.5.3.3.3.6.4.4.1.6.2.4.2.6.3c.1.1.4.4.4.9 0 .7-.2 1-.5 1.3z"/><path d="m50 38.7h-1v1.6c0 .4.1.5.1.5.1.1.2.1.3.1.2 0 .4-.1.4-.1l.2 1.2c-.1 0-.5.1-1 .1s-.9-.2-1.1-.4c-.2-.3-.3-.6-.3-1.3v-1.7h-.6v-1.1h.6v-1.2h1.4v1.2h1z"/><path d="m28.5 49.9h-1.7l-1.3-2.4h-.5v2.4h-1.5v-6.2h2.2c.7 0 1.2.1 1.6.4s.7.8.7 1.4c0 1.2-.8 1.6-1.2 1.8zm-2.1-4.9c-.2-.1-.4-.2-.7-.2h-.6v1.6h.6c.3 0 .6 0 .7-.2.2-.1.3-.3.3-.6s-.1-.5-.3-.6z"/><path d="m31.2 50c-1.4 0-2.5-.9-2.5-2.3s1.1-2.3 2.5-2.3 2.4.9 2.4 2.3-1 2.3-2.4 2.3zm0-3.5c-.6 0-1 .5-1 1.1 0 .7.4 1.1 1 1.1s1-.5 1-1.1-.4-1.1-1-1.1z"/><path d="m38.8 49.9h-1.4v-.5c-.2.3-.7.6-1.3.6s-1-.2-1.3-.5c-.2-.3-.3-.7-.3-1.3v-2.7h1.4v2.5c0 .5.1.9.7.9.5 0 .7-.4.7-1v-2.4h1.4v4.4z"/><path d="m44.2 49.9h-1.4v-2.3c0-.6-.1-1-.7-1s-.8.5-.8 1.1v2.2h-1.4v-4.4h1.4v.6c.2-.4.6-.7 1.3-.7 1.3 0 1.6.8 1.6 1.9z"/><path d="m50 49.9h-1.4v-.6c-.3.4-.9.7-1.5.7-1.3 0-2.1-1-2.1-2.3s.8-2.3 2.1-2.3c.8 0 1.3.4 1.4.6v-2.3h1.5zm-2.4-3.4c-.6 0-1 .5-1 1.1s.4 1.1 1 1.1 1-.5 1-1.1-.4-1.1-1-1.1z"/></g></svg>