<svg height="332" viewBox="0 0 536 332" width="536" xmlns="http://www.w3.org/2000/svg"><g fill="#222"><path d="m166.314283 332c-91.821588 0-166.257757-74.319528-166.257757-166.001328s74.436169-165.998672 166.257757-165.998672c11.958253 0 23.616585 1.283512 34.859285 3.67856l37.100377 73.701344c-19.262749-12.900856-42.330034-20.864872-67.492109-21.733384-1.522878-.05644-3.054402-.08632-4.59324-.08632v.014608c-61.058115.068392-110.535038 49.759496-110.535038 110.739928 0 61.023592 49.544755 110.81496 110.660725 110.81496 51.654839 0 95.040248-37.866592 107.236576-82.477432h-118.000467v-57.35632h113.397251l48.664943 97.122616c-26.212129 57.28992-84.096139 97.58144-151.298303 97.58144"/><path d="m371.382164 331.065752-32.282363-63.981048 131.971048-263.62128h64.8693z"/></g></svg>