<svg height="51" viewBox="0 0 40 51" width="40" xmlns="http://www.w3.org/2000/svg" xmlns:xlink="http://www.w3.org/1999/xlink"><mask id="a" fill="#fff"><path d="m16.4118852 6.51162791h-16.40204913v-6.36495349h16.40204913 16.4020492v6.36495349z" fill="#fff" fill-rule="evenodd"/></mask><g fill="none" fill-rule="evenodd"><g fill="#848681" transform="translate(0 44.482)"><path d="m13.826933 4.94069767c-.2391803-.26372093-.3011476-.55381395-.3011476-1.75813953 0-1.20448837.0619673-1.4945814.3011476-1.75830233.1770492-.20218604.4603279-.33404651.7967213-.33404651s.6108197.13186047.7878689.33404651c.2390163.26372093.309836.55381396.309836 1.75830233 0 1.20432558-.0708197 1.4944186-.309836 1.75813953-.1770492.20218605-.4514755.33404652-.7878689.33404652s-.6196721-.13186047-.7967213-.33404652zm3.4614754 1.37151163-.6290164-1.0814186c.2963934-.54925582.292623-1.20823256.292623-2.04823256 0-1.08141861.0086885-1.8637907-.6285246-2.49688372-.442623-.43953488-.9827869-.68567442-1.6998361-.68567442-.7172131 0-1.2660656.24613954-1.7086885.68567442-.6373771.63309302-.6198361 1.41546511-.6198361 2.49688372 0 1.08125581-.017541 1.86362791.6198361 2.49672093.4426229.43953488.9914754.68567442 1.7086885.68567442.1911475 0 .3688525-.01872093.5363934-.05274419z"/><path d="m31.5988525 6.45644186h1.2150819v-6.25702325h-1.2150819z" mask="url(#a)"/><path d="m2.30180328 6.51162791c-.95606558 0-1.68213115-.20218605-2.30180328-.82632558l.79672131-.79132559c.39852459.3955814.93852459.52744186 1.52278689.52744186.72590164 0 1.11557377-.27234883 1.11557377-.77358139 0-.21976744-.06196722-.40437209-.1947541-.52744186-.12409836-.11427907-.26573771-.17581395-.55786885-.21976744l-.76131148-.10548838c-.54-.07911627-.93852459-.24613953-1.22180328-.51865116-.3009836-.29888372-.45147541-.7034186-.45147541-1.23086046 0-1.11641861.83229508-1.89895349 2.19557377-1.89895349.86754099 0 1.49622951.21097674 2.03622951.7297907l-.77901639.76479069c-.39836066-.378-.87655738-.43074418-1.29262295-.43074418-.65508197 0-.97377049.3604186-.97377049.79116279 0 .15823256.05311475.32525581.18590163.44832558.12393443.11427907.32754099.21113953.5842623.24613953l.74360656.10548838c.57557377.07911628.93852459.23734883 1.20409836.48365116.33639344.31646512.48688524.7735814.48688524 1.32739535 0 1.21327907-1.01803278 1.89895349-2.33721311 1.89895349" mask="url(#a)"/><path d="m6.39344262 6.42225581v-6.25946511h4.15213118v1.0902093h-2.92147544v1.46804651h2.48754094v1.0902093h-2.48754094v1.5207907h2.92147544v1.0902093z"/><path d="m21.0080328 6.475c-1.292459 0-2.3195082-.87027907-2.3195082-2.19783721v-4.11437209h1.2306557v4.0704186c0 .721.4249181 1.1515814 1.0888525 1.1515814s1.0977049-.4305814 1.0977049-1.1515814v-4.0704186h1.2218033v4.11437209c0 1.32755814-1.0270492 2.19783721-2.3195082 2.19783721"/><path d="m28.3621802 1.42425581c-.1770492-.20218604-.4514754-.33404651-.7878689-.33404651-.3363934 0-.6196721.13186047-.7967213.33404651-.2391803.26372093-.3011475.55381396-.3011475 1.75830233 0 1.20432558.0619672 1.4944186.3011475 1.75813953.1770492.20218605.4603279.33404652.7967213.33404652.3363935 0 .6108197-.13186047.7878689-.33404652.2391803-.26372093.3098361-.55381395.3098361-1.75813953 0-1.20448837-.0706558-1.4945814-.3098361-1.75830233zm.9119672 4.25502326c-.4426229.43953488-.9827869.68567442-1.6998361.68567442-.7170491 0-1.2659016-.24613954-1.7086885-.68567442-.637377-.63309302-.6196721-1.41546512-.6196721-2.49672093 0-1.08141861-.0177049-1.8637907.6196721-2.49688372.4427869-.43953488.9916394-.68567442 1.7086885-.68567442.7170492 0 1.2572132.24613954 1.6998361.68567442.6373771.63309302.6285246 1.41546511.6285246 2.49688372 0 1.08125581.0088525 1.86362791-.6285246 2.49672093z"/><path d="m37.232623 2.009-.7968853 2.27695349h1.5670492zm1.4695081 4.41325581-.3718032-1.1076279h-2.2398361l-.3806557 1.1076279h-1.2836066l2.2929508-6.25946511h.9649181l2.3018032 6.25946511z"/></g><g fill="#4baf53"><path d="m29.387 9.838h9.613v-9.613h-9.613z"/><path d="m5.356 30.471v-30.246h-4.806v35.052z"/><path d="m8.754 33.869-4.806 4.807h35.052v-4.807z"/><path d="m14.968 20.858v-20.633h-4.806v25.44z"/><path d="m18.367 24.257-4.806 4.806h25.439v-4.806z"/><path d="m24.581 11.246v-11.021h-4.806v15.827z"/><path d="m27.98 14.644-4.807 4.807h15.827v-4.807z"/></g></g></svg>