<svg height="193" viewBox="0 0 1200 193" width="1200" xmlns="http://www.w3.org/2000/svg" xmlns:xlink="http://www.w3.org/1999/xlink"><defs><path id="a" d="m0 161.020995h123.68479s191.518298 6 501.584924-24.918517 574.730286-136.102478 574.730286-136.102478l.88205 191.819735h-1200.88205z"/><linearGradient id="b" x1="0%" x2="100%" y1="123.2874%" y2="64.535518%"><stop offset="0" stop-color="#00e0c0"/><stop offset="1" stop-color="#0998f0"/></linearGradient><mask id="c" fill="#fff"><use fill="#fff" fill-rule="evenodd" xlink:href="#a"/></mask></defs><g fill="none" fill-rule="evenodd"><g><use fill="#505050" xlink:href="#a"/><path d="m0 121.177126h133l-10 79.072444h-123z" fill="#f4f6f6" mask="url(#c)"/><path d="m123-246.912813 955-4.454196v443.367009h-955z" fill="url(#b)" mask="url(#c)"/><path d="m1077-407.385677 124-.614323v608.24957h-124z" fill="#f4f6f6" mask="url(#c)"/></g><g transform="translate(0 170)"><g fill="#000"><circle cx="84.5" cy="6.5" r="1.5"/><circle cx="1165.5" cy="6.5" r="1.5"/><circle cx="1112.5" cy="6.5" r="1.5"/></g><circle cx="509.5" cy="6.5" fill="#fff" r="1.5"/><circle cx="685.5" cy="6.5" fill="#fff" r="1.5"/><path d="m47.168 11h1.666v-9.8h-1.666zm3.85-9.8h3.178c3.248 0 5.082 2.422 5.082 4.9s-1.834 4.9-5.082 4.9h-3.178zm3.178 1.442h-1.568v6.916h1.568c2.184 0 3.43-1.708 3.43-3.458s-1.246-3.458-3.43-3.458zm12.432 0v-1.442h-5.656v9.8h5.656v-1.442h-4.046v-2.702h4.046v-1.442h-4.046v-2.772zm9.044 8.358h-1.694l-.42-1.246h-3.682l-.42 1.246h-1.694l3.388-9.8h1.134zm-2.604-2.688-1.344-4.438-1.358 4.438z" fill="#000"/><path d="m1123.288 7.794c0 2.198 1.596 3.444 3.374 3.444 1.82 0 3.36-1.064 3.36-3.08 0-1.876-1.834-2.52-3.36-3.066-.728-.266-1.428-.644-1.428-1.442 0-.826.672-1.246 1.47-1.246.91 0 1.47.658 1.47 1.624h1.61c0-1.82-1.358-3.066-3.122-3.066-1.638 0-3.038 1.064-3.038 2.688 0 1.96 1.442 2.506 3.234 3.136.672.238 1.554.56 1.554 1.554 0 .882-.714 1.456-1.61 1.456-1.106 0-1.904-.728-1.904-2.002zm14.196-5.152v-1.442h-5.656v9.8h5.656v-1.442h-4.046v-2.702h4.046v-1.442h-4.046v-2.772zm7.77 0v-1.442h-5.656v9.8h5.656v-1.442h-4.046v-2.702h4.046v-1.442h-4.046v-2.772zm2.114-1.442h3.178c3.248 0 5.082 2.422 5.082 4.9s-1.834 4.9-5.082 4.9h-3.178zm3.178 1.442h-1.568v6.916h1.568c2.184 0 3.43-1.708 3.43-3.458s-1.246-3.458-3.43-3.458z" fill="#000"/><path d="m525.392.8h4.112c3.712 0 5.824 2.736 5.824 5.6s-2.096 5.6-5.824 5.6h-4.112zm3.984 2.24h-1.392v6.72h1.392c2.096 0 3.312-1.632 3.312-3.36s-1.216-3.36-3.312-3.36zm13.072 9.248c-3.728 0-5.936-2.816-5.936-5.888s2.208-5.888 5.936-5.888c3.712 0 5.92 2.816 5.92 5.888s-2.208 5.888-5.92 5.888zm0-2.336c2.032 0 3.28-1.712 3.28-3.552s-1.248-3.552-3.28-3.552c-2.048 0-3.28 1.712-3.28 3.552s1.232 3.552 3.28 3.552zm12.032-3.168c1.088 0 1.792-.896 1.792-1.936s-.704-1.936-1.792-1.936h-1.776v3.872zm-4.368 5.216v-11.2h4.704c2.48 0 4.08 1.872 4.08 4.048 0 1.568-.832 2.96-2.224 3.616l2.24 3.536h-3.008l-1.984-3.104h-1.216v3.104zm22.512-11.2h-2.944l-2.96 7.792-2.992-7.792h-2.992v11.2h2.528v-6.944l2.496 6.944h1.92l2.416-6.944v6.944h2.528zm10.72 5.984c1.088 0 1.792-.896 1.792-1.936s-.704-1.936-1.792-1.936h-1.776v3.872zm-4.368 5.216v-11.2h4.704c2.48 0 4.08 1.872 4.08 4.048 0 1.568-.832 2.96-2.224 3.616l2.24 3.536h-3.008l-1.984-3.104h-1.216v3.104zm15.888.288c-3.728 0-5.936-2.816-5.936-5.888s2.208-5.888 5.936-5.888c3.712 0 5.92 2.816 5.92 5.888s-2.208 5.888-5.92 5.888zm0-2.336c2.032 0 3.28-1.712 3.28-3.552s-1.248-3.552-3.28-3.552c-2.048 0-3.28 1.712-3.28 3.552s1.232 3.552 3.28 3.552zm13.04 2.336c-3.728 0-5.936-2.816-5.936-5.888s2.208-5.888 5.936-5.888c3.712 0 5.92 2.816 5.92 5.888s-2.208 5.888-5.92 5.888zm0-2.336c2.032 0 3.28-1.712 3.28-3.552s-1.248-3.552-3.28-3.552c-2.048 0-3.28 1.712-3.28 3.552s1.232 3.552 3.28 3.552zm19.552-9.152h-2.944l-2.96 7.792-2.992-7.792h-2.992v11.2h2.528v-6.944l2.496 6.944h1.92l2.416-6.944v6.944h2.528zm13.184 2.176v-2.176h-6.832v11.2h2.592v-3.872h4.24v-2.128h-4.24v-3.024zm1.952 5.2c0 2.304 1.68 4.112 4.352 4.112 2.688 0 4.368-1.808 4.368-4.112v-7.376h-2.592v7.36c0 1.024-.72 1.888-1.776 1.888s-1.76-.864-1.76-1.888v-7.36h-2.592zm13.552-7.376h-2.704v11.2h2.592v-7.2l4.032 7.2h2.704v-11.2h-2.576v7.296zm8.928 0h4.112c3.712 0 5.824 2.736 5.824 5.6s-2.096 5.6-5.824 5.6h-4.112zm3.984 2.24h-1.392v6.72h1.392c2.096 0 3.312-1.632 3.312-3.36s-1.216-3.36-3.312-3.36z" fill="#fff"/><g stroke-linecap="square" stroke-width="1.5" transform="translate(84 5.799988)"><path d="m7.5.75h418" stroke="#fff"/><path d="m603.5.75h390.001344" stroke="#fff"/><g stroke="#000"><path d="m994.488374.75h33.026766"/><path d="m.5.75h38.0151427"/><path d="m1082.48837.75h40.01163"/></g></g><path d="m0 22h1200" stroke="#dadada" stroke-linecap="square"/></g></g></svg>