<?xml version="1.0" encoding="UTF-8"?>
<svg width="43px" height="44px" viewBox="0 0 43 44" version="1.1" xmlns="http://www.w3.org/2000/svg" xmlns:xlink="http://www.w3.org/1999/xlink">
    <!-- Generator: Sketch 42 (36781) - http://www.bohemiancoding.com/sketch -->
    <title>Group 3</title>
    <desc>Created with Sketch.</desc>
    <defs></defs>
    <g id="Page-1" stroke="none" stroke-width="1" fill="none" fill-rule="evenodd">
        <g id="Group-2" transform="translate(2.000000, 2.000000)">
            <g id="Group-3">
                <path d="M10.022,14.817 C13.1,14.817 15.354,17.118 15.354,20.258 C15.354,23.397 13.1,25.698 10.022,25.698 L6.074,25.698 L6.074,14.817 L10.022,14.817 L10.022,14.817 Z M10.022,16.994 L8.25,16.994 L8.25,23.522 L10.022,23.522 C11.887,23.522 13.177,22.139 13.177,20.259 C13.178,18.377 11.888,16.994 10.022,16.994 L10.022,16.994 Z" id="Shape" fill="#000000" fill-rule="nonzero"></path>
                <polygon id="Shape" fill="#000000" fill-rule="nonzero" points="33.806 14.945 33.806 17.121 28.956 17.121 28.956 19.297 33.806 19.297 33.806 21.473 28.956 21.473 28.956 25.826 26.78 25.826 26.78 14.945"></polygon>
                <path d="M26.797,25.838 C27.116,25.75 27.434,25.629 27.748,25.466 L26.879,23.983 C26.851,23.996 26.824,24.005 26.797,24.017 L26.797,25.838 Z" id="Shape" fill="#000000" fill-rule="nonzero"></path>
                <path d="M25.897,24.208 C25.035,24.181 24.313,23.534 23.823,22.593 L23.347,21.679 C24.346,21.012 24.961,19.88 24.961,18.533 L24.953,18.525 C24.953,16.349 23.352,14.733 21.113,14.733 L21.047,14.733 L16.357,14.733 L16.357,25.613 L18.533,25.613 L18.533,22.334 L21.036,22.334 L21.121,22.325 C21.172,22.325 21.221,22.32 21.271,22.318 L22.001,23.719 C22.811,25.274 24.304,26.086 25.897,25.988 L25.897,24.208 Z M22.775,18.541 C22.775,19.473 22.153,20.157 21.112,20.157 L18.533,20.157 L18.533,16.909 L21.113,16.909 C22.155,16.909 22.776,17.593 22.776,18.525 L22.775,18.541 Z" id="Shape" fill="#000000" fill-rule="nonzero"></path>
                <circle id="Oval" stroke="#000000" stroke-width="3" cx="19.807" cy="20.135" r="19.667"></circle>
            </g>
        </g>
    </g>
</svg>