<?xml version="1.0" encoding="UTF-8"?>
<svg width="536px" height="332px" viewBox="0 0 536 332" version="1.1" xmlns="http://www.w3.org/2000/svg" xmlns:xlink="http://www.w3.org/1999/xlink">
    <!-- Generator: Sketch 42 (36781) - http://www.bohemiancoding.com/sketch -->
    <title>investor-gv</title>
    <desc>Created with Sketch.</desc>
    <defs></defs>
    <g id="Page-1" stroke="none" stroke-width="1" fill="none" fill-rule="evenodd">
        <g id="investor-gv" fill-rule="nonzero" fill="#222222">
            <g id="Page-1">
                <g id="gv">
                    <path d="M166.314283,332 C74.492695,332 0.056526,257.680472 0.056526,165.998672 C0.056526,74.316872 74.492695,0 166.314283,0 C178.272536,0 189.930868,1.283512 201.173568,3.67856 L238.273945,77.379904 C219.011196,64.479048 195.943911,56.515032 170.781836,55.64652 C169.258958,55.59008 167.727434,55.5602 166.188596,55.5602 L166.188596,55.574808 C105.130481,55.6432 55.653558,105.334304 55.653558,166.314736 C55.653558,227.338328 105.198313,277.129696 166.314283,277.129696 C217.969122,277.129696 261.354531,239.263104 273.550859,194.652264 L155.550392,194.652264 L155.550392,137.295944 L268.947643,137.295944 L317.612586,234.41856 C291.400457,291.70848 233.516447,332 166.314283,332" id="Fill-1"></path>
                    <polyline id="Fill-2" points="371.382164 331.065752 339.099801 267.084704 471.070849 3.463424 535.940149 3.463424 371.382164 331.065752"></polyline>
                </g>
            </g>
        </g>
    </g>
</svg>