<?xml version="1.0" encoding="UTF-8"?>
<svg width="1200px" height="193px" viewBox="0 0 1200 193" version="1.1" xmlns="http://www.w3.org/2000/svg" xmlns:xlink="http://www.w3.org/1999/xlink">
    <!-- Generator: Sketch 42 (36781) - http://www.bohemiancoding.com/sketch -->
    <title>Ramp</title>
    <desc>Created with Sketch.</desc>
    <defs>
        <path d="M0,161.020995 L123.68479,161.020995 C123.68479,161.020995 315.203088,167.020995 625.269714,136.102478 C935.33634,105.183961 1200,0 1200,0 L1200.88205,191.819735 L0,191.819735 L0,161.020995 Z" id="path-1"></path>
        <linearGradient x1="0%" y1="123.2874%" x2="100%" y2="64.5355181%" id="linearGradient-3">
            <stop stop-color="#00E0C0" offset="0%"></stop>
            <stop stop-color="#0998F0" offset="100%"></stop>
        </linearGradient>
    </defs>
    <g id="Page-1" stroke="none" stroke-width="1" fill="none" fill-rule="evenodd">
        <g id="Desktop-HD-Copy-20" transform="translate(0.000000, -212.000000)">
            <g id="Ramp" transform="translate(0.000000, 212.000000)">
                <g id="Group">
                    <mask id="mask-2" fill="white">
                        <use xlink:href="#path-1"></use>
                    </mask>
                    <use id="Path-2" fill="#505050" xlink:href="#path-1"></use>
                    <polygon id="Rectangle-3" fill="#F4F6F6" mask="url(#mask-2)" points="0 121.177126 133 121.177126 123 200.24957 0 200.24957"></polygon>
                    <polygon id="Rectangle-3-Copy" fill="url(#linearGradient-3)" mask="url(#mask-2)" points="123 -246.912813 1078 -251.367009 1078 192 123 192"></polygon>
                    <polygon id="Rectangle-3" fill="#F4F6F6" mask="url(#mask-2)" points="1077 -407.385677 1201 -408 1201 200.24957 1077 200.24957"></polygon>
                </g>
                <circle id="Oval-2" fill="#000000" cx="84.5" cy="176.5" r="1.5"></circle>
                <circle id="Oval-2-Copy-3" fill="#000000" cx="1165.5" cy="176.5" r="1.5"></circle>
                <circle id="Oval-2-Copy-3" fill="#000000" cx="1112.5" cy="176.5" r="1.5"></circle>
                <circle id="Oval-2-Copy" fill="#FFFFFF" cx="509.5" cy="176.5" r="1.5"></circle>
                <circle id="Oval-2-Copy-2" fill="#FFFFFF" cx="685.5" cy="176.5" r="1.5"></circle>
                <path d="M47.168,181 L48.834,181 L48.834,171.2 L47.168,171.2 L47.168,181 Z M51.018,171.2 L54.196,171.2 C57.444,171.2 59.278,173.622 59.278,176.1 C59.278,178.578 57.444,181 54.196,181 L51.018,181 L51.018,171.2 Z M54.196,172.642 L52.628,172.642 L52.628,179.558 L54.196,179.558 C56.38,179.558 57.626,177.85 57.626,176.1 C57.626,174.35 56.38,172.642 54.196,172.642 Z M66.628,172.642 L66.628,171.2 L60.972,171.2 L60.972,181 L66.628,181 L66.628,179.558 L62.582,179.558 L62.582,176.856 L66.628,176.856 L66.628,175.414 L62.582,175.414 L62.582,172.642 L66.628,172.642 Z M75.672,181 L73.978,181 L73.558,179.754 L69.876,179.754 L69.456,181 L67.762,181 L71.15,171.2 L72.284,171.2 L75.672,181 Z M73.068,178.312 L71.724,173.874 L70.366,178.312 L73.068,178.312 Z" id="IDEA" fill="#000000"></path>
                <path d="M1123.288,177.794 C1123.288,179.992 1124.884,181.238 1126.662,181.238 C1128.482,181.238 1130.022,180.174 1130.022,178.158 C1130.022,176.282 1128.188,175.638 1126.662,175.092 C1125.934,174.826 1125.234,174.448 1125.234,173.65 C1125.234,172.824 1125.906,172.404 1126.704,172.404 C1127.614,172.404 1128.174,173.062 1128.174,174.028 L1129.784,174.028 C1129.784,172.208 1128.426,170.962 1126.662,170.962 C1125.024,170.962 1123.624,172.026 1123.624,173.65 C1123.624,175.61 1125.066,176.156 1126.858,176.786 C1127.53,177.024 1128.412,177.346 1128.412,178.34 C1128.412,179.222 1127.698,179.796 1126.802,179.796 C1125.696,179.796 1124.898,179.068 1124.898,177.794 L1123.288,177.794 Z M1137.484,172.642 L1137.484,171.2 L1131.828,171.2 L1131.828,181 L1137.484,181 L1137.484,179.558 L1133.438,179.558 L1133.438,176.856 L1137.484,176.856 L1137.484,175.414 L1133.438,175.414 L1133.438,172.642 L1137.484,172.642 Z M1145.254,172.642 L1145.254,171.2 L1139.598,171.2 L1139.598,181 L1145.254,181 L1145.254,179.558 L1141.208,179.558 L1141.208,176.856 L1145.254,176.856 L1145.254,175.414 L1141.208,175.414 L1141.208,172.642 L1145.254,172.642 Z M1147.368,171.2 L1150.546,171.2 C1153.794,171.2 1155.628,173.622 1155.628,176.1 C1155.628,178.578 1153.794,181 1150.546,181 L1147.368,181 L1147.368,171.2 Z M1150.546,172.642 L1148.978,172.642 L1148.978,179.558 L1150.546,179.558 C1152.73,179.558 1153.976,177.85 1153.976,176.1 C1153.976,174.35 1152.73,172.642 1150.546,172.642 Z" id="SEED" fill="#000000"></path>
                <path d="M525.392,170.8 L529.504,170.8 C533.216,170.8 535.328,173.536 535.328,176.4 C535.328,179.264 533.232,182 529.504,182 L525.392,182 L525.392,170.8 Z M529.376,173.04 L527.984,173.04 L527.984,179.76 L529.376,179.76 C531.472,179.76 532.688,178.128 532.688,176.4 C532.688,174.672 531.472,173.04 529.376,173.04 Z M542.448,182.288 C538.72,182.288 536.512,179.472 536.512,176.4 C536.512,173.328 538.72,170.512 542.448,170.512 C546.16,170.512 548.368,173.328 548.368,176.4 C548.368,179.472 546.16,182.288 542.448,182.288 Z M542.448,179.952 C544.48,179.952 545.728,178.24 545.728,176.4 C545.728,174.56 544.48,172.848 542.448,172.848 C540.4,172.848 539.168,174.56 539.168,176.4 C539.168,178.24 540.4,179.952 542.448,179.952 Z M554.48,176.784 C555.568,176.784 556.272,175.888 556.272,174.848 C556.272,173.808 555.568,172.912 554.48,172.912 L552.704,172.912 L552.704,176.784 L554.48,176.784 Z M550.112,182 L550.112,170.8 L554.816,170.8 C557.296,170.8 558.896,172.672 558.896,174.848 C558.896,176.416 558.064,177.808 556.672,178.464 L558.912,182 L555.904,182 L553.92,178.896 L552.704,178.896 L552.704,182 L550.112,182 Z M572.624,170.8 L569.68,170.8 L566.72,178.592 L563.728,170.8 L560.736,170.8 L560.736,182 L563.264,182 L563.264,175.056 L565.76,182 L567.68,182 L570.096,175.056 L570.096,182 L572.624,182 L572.624,170.8 Z M583.344,176.784 C584.432,176.784 585.136,175.888 585.136,174.848 C585.136,173.808 584.432,172.912 583.344,172.912 L581.568,172.912 L581.568,176.784 L583.344,176.784 Z M578.976,182 L578.976,170.8 L583.68,170.8 C586.16,170.8 587.76,172.672 587.76,174.848 C587.76,176.416 586.928,177.808 585.536,178.464 L587.776,182 L584.768,182 L582.784,178.896 L581.568,178.896 L581.568,182 L578.976,182 Z M594.864,182.288 C591.136,182.288 588.928,179.472 588.928,176.4 C588.928,173.328 591.136,170.512 594.864,170.512 C598.576,170.512 600.784,173.328 600.784,176.4 C600.784,179.472 598.576,182.288 594.864,182.288 Z M594.864,179.952 C596.896,179.952 598.144,178.24 598.144,176.4 C598.144,174.56 596.896,172.848 594.864,172.848 C592.816,172.848 591.584,174.56 591.584,176.4 C591.584,178.24 592.816,179.952 594.864,179.952 Z M607.904,182.288 C604.176,182.288 601.968,179.472 601.968,176.4 C601.968,173.328 604.176,170.512 607.904,170.512 C611.616,170.512 613.824,173.328 613.824,176.4 C613.824,179.472 611.616,182.288 607.904,182.288 Z M607.904,179.952 C609.936,179.952 611.184,178.24 611.184,176.4 C611.184,174.56 609.936,172.848 607.904,172.848 C605.856,172.848 604.624,174.56 604.624,176.4 C604.624,178.24 605.856,179.952 607.904,179.952 Z M627.456,170.8 L624.512,170.8 L621.552,178.592 L618.56,170.8 L615.568,170.8 L615.568,182 L618.096,182 L618.096,175.056 L620.592,182 L622.512,182 L624.928,175.056 L624.928,182 L627.456,182 L627.456,170.8 Z M640.64,172.976 L640.64,170.8 L633.808,170.8 L633.808,182 L636.4,182 L636.4,178.128 L640.64,178.128 L640.64,176 L636.4,176 L636.4,172.976 L640.64,172.976 Z M642.592,178.176 C642.592,180.48 644.272,182.288 646.944,182.288 C649.632,182.288 651.312,180.48 651.312,178.176 L651.312,170.8 L648.72,170.8 L648.72,178.16 C648.72,179.184 648,180.048 646.944,180.048 C645.888,180.048 645.184,179.184 645.184,178.16 L645.184,170.8 L642.592,170.8 L642.592,178.176 Z M656.144,170.8 L653.44,170.8 L653.44,182 L656.032,182 L656.032,174.8 L660.064,182 L662.768,182 L662.768,170.8 L660.192,170.8 L660.192,178.096 L656.144,170.8 Z M665.072,170.8 L669.184,170.8 C672.896,170.8 675.008,173.536 675.008,176.4 C675.008,179.264 672.912,182 669.184,182 L665.072,182 L665.072,170.8 Z M669.056,173.04 L667.664,173.04 L667.664,179.76 L669.056,179.76 C671.152,179.76 672.368,178.128 672.368,176.4 C672.368,174.672 671.152,173.04 669.056,173.04 Z" id="DORM-ROOM-FUND" fill="#FFFFFF"></path>
                <g id="Group-6" transform="translate(84.000000, 175.799988)" stroke-width="1.5" stroke-linecap="square">
                    <path d="M7.5,0.75 L425.5,0.75" id="Line" stroke="#FFFFFF"></path>
                    <path d="M603.5,0.75 L993.501344,0.75" id="Line-Copy" stroke="#FFFFFF"></path>
                    <path d="M994.488374,0.75 L1027.51514,0.75" id="Line-Copy-2" stroke="#000000"></path>
                    <path d="M0.5,0.75 L38.5151427,0.75" id="Line-Copy-4" stroke="#000000"></path>
                    <path d="M1082.48837,0.75 L1122.5,0.75" id="Line-Copy-3" stroke="#000000"></path>
                </g>
                <path d="M0,192 L1200,192" id="Line" stroke="#DADADA" stroke-linecap="square"></path>
            </g>
        </g>
    </g>
</svg>